# xmcd CD database file
#
# Track frame offsets:
#	150
#	14030
#	29077
#	44086
#	62842
#	81933
#	99505
#	117572
#	137189
#	156259
#	174159
#	196287
#	218196
#	237085
#	255396
#	276625
#	296378
#	313139
#
# Disc length: 4436 seconds
#
# Revision: 0
# Processed by: cddbd v1.5.2PL0 Copyright (c) Steve Scherf et al.
# Submitted via: CDex 1.51
#
DISCID=17115212
DTITLE=Various Artist - Country Mix
DYEAR=1900
DGENRE=Country
TTITLE0=Pickin' Wildflowers [Keigth Anderson]
TTITLE1=Hot Mama [Trace Adkins]
TTITLE2=Save A Horse (Ride A Cowboy) [Big and Rich]
TTITLE3=Gone [Montgomery Gentry]
TTITLE4=These Days [Rascal Flatts]
TTITLE5=I Melt [Rascal Flatts]
TTITLE6=Amazed [Lonestar]
TTITLE7=Like The Rain [Clint Black]
TTITLE8=It's Getting Better All The Time (previously unreleased) [Brooks and Dunn]
TTITLE9=If You See Him - If You See Her (with Reba McEntire) [Brooks and Dunn]
TTITLE10=I Hope You Dance [Lee Ann Womack]
TTITLE11=She's Gotta Be [Keith Urban]
TTITLE12=Your Everything [Keith Urban]
TTITLE13=Desperado (previously unreleased live) [Clint Black]
TTITLE14=That's Love [Brad Paisley]
TTITLE15=American Soldier [Toby Keith]
TTITLE16=You Shouldn't Kiss Me Like This [Toby Keith]
TTITLE17=What Was I Thinkin' [Dierks Bentley]
EXTD=
EXTT0=
EXTT1=
EXTT2=
EXTT3=
EXTT4=
EXTT5=
EXTT6=
EXTT7=
EXTT8=
EXTT9=
EXTT10=
EXTT11=
EXTT12=
EXTT13=
EXTT14=
EXTT15=
EXTT16=
EXTT17=
PLAYORDER=
